<svg xmlns="http://www.w3.org/2000/svg" viewBox="0 0 76.85 11.67"><defs><style>.cls-1{fill:#1d1d1d;}.cls-1,.cls-2{fill-rule:evenodd;}.cls-2{fill:#c3371b;}</style></defs><path class="cls-1" d="M7.89 5.77v4.47l-.43.24a5.35 5.35 0 0 1-2.2.52 5.27 5.27 0 0 1-4-1.89A5.13 5.13 0 0 1 0 5.8a5.22 5.22 0 0 1 1.85-3.94A5.34 5.34 0 0 1 5.26.64a5.11 5.11 0 0 1 2.42.61V2.5a4.43 4.43 0 0 0-2.39-.8 4.15 4.15 0 0 0-2.74 1 4.16 4.16 0 0 0-1.44 3.1A4 4 0 0 0 2 8.4a4.29 4.29 0 0 0 3.26 1.49 4.17 4.17 0 0 0 1.51-.29V6.83H4.51V5.77zM50.41.66h.24a3.32 3.32 0 0 1 .72.08l.21.05a5.3 5.3 0 0 1 1.09.37l.13.05v1.26l-.35-.21a1 1 0 0 1-.24-.13L51.93 2a4.75 4.75 0 0 0-1.38-.29h-.27a6 6 0 0 0-1 .16c-.11 0-.24.08-.37.11l-.35.16a4.6 4.6 0 0 0-1.09.8 4.2 4.2 0 0 0-1.2 2.77V6a5.1 5.1 0 0 0 .16 1c0 .13.08.27.11.37l.16.37a4.54 4.54 0 0 0 .77 1.06 4.06 4.06 0 0 0 2.77 1.2h.27a4 4 0 0 0 .58-.05.78.78 0 0 0 .24-.05 3.75 3.75 0 0 0 1.06-.42l.35-.19v1.22l-.13.08a3.19 3.19 0 0 0-.29.13l-.32.11a4.73 4.73 0 0 1-1.41.27h-.48a5.16 5.16 0 0 1-1.12-.19 2 2 0 0 1-.43-.13 4.88 4.88 0 0 1-1.86-1.2 5 5 0 0 1-1.12-1.65l-.16-.4a2.76 2.76 0 0 1-.04-.53 3.57 3.57 0 0 1-.13-.93v-.49a5.16 5.16 0 0 1 .19-1.12 2 2 0 0 1 .13-.46 4.88 4.88 0 0 1 1.2-1.86 4.89 4.89 0 0 1 1.62-1.12l.43-.12.42-.1a5.68 5.68 0 0 1 .93-.13h.24zM12.78.8h5.29v1.09H13.9v3.35h3.54v1.09H13.9v3.43h4.41v1.09h-5.53z"/><path class="cls-2" d="M60.86 0c1.76 3.88 3.48 7.77 5.24 11.67-1.75-.75-3.48-1.46-5.24-2.18l-5.26 2.16zm0 2.47l-3.3 7.29 3.3-1.36 3.27 1.36z"/><path class="cls-1" d="M27 .66a5.22 5.22 0 0 1 5.11 5.16A5.23 5.23 0 0 1 27 11a5.25 5.25 0 0 1-5.11-5.19A5.22 5.22 0 0 1 27 .66zm0 1.06a4.1 4.1 0 0 0-2.77 7A4 4 0 0 0 27 9.92a4 4 0 0 0 2.93-1.3A4.16 4.16 0 0 0 31 5.82a4.17 4.17 0 0 0-.8-2.39 4 4 0 0 0-3.2-1.7zM70.01.8l5.74 7.79V.8h1.07v10.02h-.75l-5.79-7.84v7.84h-1.09V.8h.82zM36.18 4.39a2.56 2.56 0 0 1 .4-2.79A3.22 3.22 0 0 1 39 .66a7.2 7.2 0 0 1 2.26.53l-.4 1a5.93 5.93 0 0 0-1.94-.48 2.07 2.07 0 0 0-1.7.77 1.46 1.46 0 0 0-.08 1.44A4 4 0 0 0 39 5.42a4.75 4.75 0 0 1 2.1 1.78 2.81 2.81 0 0 1 .16 2 2.73 2.73 0 0 1-2 1.73 4.25 4.25 0 0 1-3.91-1c.21-.27.45-.53.69-.8a3.43 3.43 0 0 0 1.91.88 2.11 2.11 0 0 0 2.25-1.1 1.75 1.75 0 0 0-.27-1.49 4.82 4.82 0 0 0-1.6-1.14 4.64 4.64 0 0 1-2.15-1.89z"/></svg>
